<svg width="181" height="132" viewBox="0 0 181 132" fill="none" xmlns="http://www.w3.org/2000/svg">
<line x1="140" y1="119.5" x2="180" y2="119.5" stroke="white"/>
<path d="M150 120C150 122.761 147.761 125 145 125C142.239 125 140 122.761 140 120C140 117.239 142.239 115 145 115C147.761 115 150 117.239 150 120Z" fill="white"/>
<path d="M149 120C149 122.209 147.209 124 145 124C142.791 124 141 122.209 141 120C141 117.791 142.791 116 145 116C147.209 116 149 117.791 149 120Z" fill="#FF0000"/>
<line x1="71" y1="76.5" x2="180" y2="76.5" stroke="white"/>
<path d="M81 77C81 79.7614 78.7614 82 76 82C73.2386 82 71 79.7614 71 77C71 74.2386 73.2386 72 76 72C78.7614 72 81 74.2386 81 77Z" fill="white"/>
<path d="M80 77C80 79.2091 78.2091 81 76 81C73.7909 81 72 79.2091 72 77C72 74.7909 73.7909 73 76 73C78.2091 73 80 74.7909 80 77Z" fill="#FF0000"/>
<line x1="87" y1="33.5" x2="180" y2="33.5" stroke="white"/>
<path d="M95 34C95 36.7614 92.7614 39 90 39C87.2386 39 85 36.7614 85 34C85 31.2386 87.2386 29 90 29C92.7614 29 95 31.2386 95 34Z" fill="white"/>
<path d="M94 34C94 36.2091 92.2091 38 90 38C87.7909 38 86 36.2091 86 34C86 31.7909 87.7909 30 90 30C92.2091 30 94 31.7909 94 34Z" fill="#FF0000"/>
<line x1="180.5" y1="2.18557e-08" x2="180.5" y2="120" stroke="white"/>
</svg>
